<mxfile host="www.draw.io" modified="2024-06-24T09:43:30.479Z" agent="Mozilla/5.0 (Windows NT 10.0; Win64; x64) AppleWebKit/537.36 (KHTML, like Gecko) Chrome/126.0.0.0 Safari/537.36" etag="VF7fux2Ig51scmc5JsbT" version="24.3.1" type="device">
  <diagram name="Halaman-1" id="2MGG3hbpbYL8Z4B8BV_9">
    <mxGraphModel dx="1257" dy="669" grid="1" gridSize="10" guides="1" tooltips="1" connect="1" arrows="1" fold="1" page="1" pageScale="1" pageWidth="827" pageHeight="1169" math="0" shadow="0">
      <root>
        <mxCell id="0" />
        <mxCell id="1" parent="0" />
        <mxCell id="0b0YnygKpjsZkGj9ZP2K-2" style="edgeStyle=orthogonalEdgeStyle;rounded=0;orthogonalLoop=1;jettySize=auto;html=1;" edge="1" parent="1" source="0b0YnygKpjsZkGj9ZP2K-1">
          <mxGeometry relative="1" as="geometry">
            <mxPoint x="410" y="140" as="targetPoint" />
          </mxGeometry>
        </mxCell>
        <mxCell id="0b0YnygKpjsZkGj9ZP2K-1" value="MULAI" style="ellipse;whiteSpace=wrap;html=1;" vertex="1" parent="1">
          <mxGeometry x="360" y="20" width="100" height="60" as="geometry" />
        </mxCell>
        <mxCell id="0b0YnygKpjsZkGj9ZP2K-3" value="" style="rounded=0;whiteSpace=wrap;html=1;" vertex="1" parent="1">
          <mxGeometry x="350" y="140" width="120" height="60" as="geometry" />
        </mxCell>
      </root>
    </mxGraphModel>
  </diagram>
</mxfile>
